<?xml version="1.0" encoding="UTF-8"?>
<svg xmlns="http://www.w3.org/2000/svg" xmlns:xlink="http://www.w3.org/1999/xlink" width="20px" height="20px" viewBox="0 0 20 20" version="1.1">
<g id="surface1">
<path style=" stroke:none;fill-rule:nonzero;fill:rgb(0%,0%,0%);fill-opacity:1;" d="M 17.308594 2.804688 C 17.152344 2.613281 16.914062 2.5 16.664062 2.5 L 5 2.5 C 4.539062 2.5 4.164062 2.871094 4.164062 3.335938 C 4.164062 3.792969 4.539062 4.164062 5 4.164062 L 15.65625 4.164062 L 15.003906 7.5 L 4.164062 7.5 C 3.707031 7.5 3.335938 7.871094 3.335938 8.335938 C 3.335938 8.792969 3.707031 9.164062 4.164062 9.164062 L 14.679688 9.164062 L 13.710938 14.128906 L 8.441406 15.792969 L 3.929688 14.378906 L 4.101562 13.492188 C 4.1875 13.039062 3.890625 12.601562 3.441406 12.515625 C 2.988281 12.429688 2.550781 12.726562 2.464844 13.179688 L 2.15625 14.792969 C 2.078125 15.210938 2.320312 15.617188 2.726562 15.742188 L 8.191406 17.460938 C 8.355469 17.511719 8.527344 17.511719 8.695312 17.460938 L 14.683594 15.570312 C 14.976562 15.476562 15.195312 15.234375 15.25 14.933594 L 17.484375 3.492188 C 17.53125 3.25 17.46875 2.996094 17.308594 2.804688 Z M 17.308594 2.804688 "/>
</g>
</svg>
