<?xml version="1.0" encoding="UTF-8"?>
<svg xmlns="http://www.w3.org/2000/svg" xmlns:xlink="http://www.w3.org/1999/xlink" width="20px" height="20px" viewBox="0 0 20 20" version="1.1">
<g id="surface1">
<path style=" stroke:none;fill-rule:nonzero;fill:rgb(0%,0%,0%);fill-opacity:1;" d="M 6.046875 7.609375 L 9.847656 5.414062 C 9.941406 5.363281 10.058594 5.363281 10.152344 5.414062 L 13.953125 7.609375 C 14.046875 7.664062 14.105469 7.765625 14.105469 7.878906 L 14.105469 12.261719 C 14.105469 12.371094 14.046875 12.472656 13.953125 12.527344 L 10.152344 14.722656 C 10.058594 14.773438 9.941406 14.773438 9.847656 14.722656 L 6.046875 12.527344 C 5.953125 12.472656 5.894531 12.371094 5.894531 12.261719 L 5.894531 7.878906 C 5.894531 7.765625 5.953125 7.664062 6.046875 7.609375 M 19.878906 9.609375 L 15.335938 1.710938 C 15.171875 1.429688 14.867188 1.214844 14.539062 1.214844 L 5.460938 1.214844 C 5.132812 1.214844 4.828125 1.429688 4.664062 1.710938 L 0.125 9.589844 C -0.0390625 9.878906 -0.0390625 10.234375 0.125 10.523438 L 4.664062 18.351562 C 4.828125 18.636719 5.132812 18.785156 5.460938 18.785156 L 14.539062 18.785156 C 14.867188 18.785156 15.171875 18.644531 15.339844 18.355469 L 19.878906 10.511719 C 20.039062 10.234375 20.039062 9.886719 19.878906 9.609375 M 16.117188 13.40625 C 16.117188 13.523438 16.050781 13.628906 15.949219 13.6875 L 10.164062 17.023438 C 10.066406 17.078125 9.941406 17.078125 9.839844 17.023438 L 4.054688 13.6875 C 3.953125 13.628906 3.886719 13.523438 3.882812 13.40625 L 3.882812 6.734375 C 3.882812 6.617188 3.953125 6.507812 4.054688 6.453125 L 9.835938 3.117188 C 9.933594 3.058594 10.058594 3.058594 10.160156 3.117188 L 15.945312 6.453125 C 16.050781 6.507812 16.113281 6.617188 16.117188 6.734375 Z M 16.117188 13.40625 "/>
</g>
</svg>
