<?xml version="1.0" encoding="UTF-8"?>
<svg xmlns="http://www.w3.org/2000/svg" xmlns:xlink="http://www.w3.org/1999/xlink" width="20px" height="20px" viewBox="0 0 20 20" version="1.1">
<g id="surface1">
<path style=" stroke:none;fill-rule:nonzero;fill:rgb(0%,0%,0%);fill-opacity:1;" d="M 19.621094 9.109375 L 10.890625 0.378906 C 10.386719 -0.125 9.570312 -0.125 9.070312 0.378906 L 7.257812 2.191406 L 9.554688 4.492188 C 10.109375 4.300781 10.722656 4.445312 11.132812 4.859375 C 11.546875 5.273438 11.6875 5.886719 11.492188 6.441406 L 13.710938 8.65625 C 14.382812 8.417969 15.132812 8.679688 15.515625 9.289062 C 15.894531 9.898438 15.804688 10.683594 15.292969 11.1875 C 14.777344 11.710938 13.964844 11.789062 13.355469 11.382812 C 12.746094 10.976562 12.507812 10.195312 12.789062 9.523438 L 10.726562 7.453125 L 10.726562 12.894531 C 11.371094 13.214844 11.710938 13.945312 11.53125 14.644531 C 11.351562 15.34375 10.710938 15.824219 9.992188 15.800781 C 9.269531 15.773438 8.664062 15.246094 8.539062 14.539062 C 8.410156 13.824219 8.796875 13.121094 9.464844 12.851562 L 9.464844 7.359375 C 9.085938 7.203125 8.789062 6.902344 8.632812 6.527344 C 8.476562 6.148438 8.476562 5.726562 8.632812 5.351562 L 6.367188 3.082031 L 0.378906 9.070312 C -0.125 9.570312 -0.125 10.386719 0.378906 10.890625 L 9.113281 19.621094 C 9.617188 20.125 10.429688 20.125 10.929688 19.621094 L 19.625 10.929688 C 20.125 10.429688 20.125 9.613281 19.625 9.109375 "/>
</g>
</svg>
