<?xml version="1.0" encoding="UTF-8"?>
<svg xmlns="http://www.w3.org/2000/svg" xmlns:xlink="http://www.w3.org/1999/xlink" width="20px" height="20px" viewBox="0 0 20 20" version="1.1">
<g id="surface1">
<path style=" stroke:none;fill-rule:evenodd;fill:rgb(0%,0%,0%);fill-opacity:1;" d="M 0 0 L 20 0 L 20 20 L 0 20 Z M 15.289062 16.765625 C 14.363281 16.765625 13.835938 16.285156 13.433594 15.625 L 11.90625 16.511719 C 12.460938 17.601562 13.585938 18.433594 15.332031 18.433594 C 17.117188 18.433594 18.445312 17.507812 18.445312 15.816406 C 18.445312 14.246094 17.542969 13.546875 15.945312 12.863281 L 15.476562 12.664062 C 14.671875 12.3125 14.320312 12.085938 14.320312 11.523438 C 14.320312 11.066406 14.671875 10.714844 15.222656 10.714844 C 15.761719 10.714844 16.109375 10.945312 16.429688 11.523438 L 17.894531 10.582031 C 17.273438 9.492188 16.414062 9.074219 15.222656 9.074219 C 13.542969 9.074219 12.46875 10.148438 12.46875 11.558594 C 12.46875 13.085938 13.371094 13.8125 14.726562 14.390625 L 15.195312 14.589844 C 16.054688 14.964844 16.566406 15.195312 16.566406 15.839844 C 16.566406 16.378906 16.070312 16.765625 15.289062 16.765625 Z M 8.007812 16.753906 C 7.359375 16.753906 7.089844 16.3125 6.796875 15.789062 L 5.265625 16.714844 C 5.710938 17.652344 6.582031 18.429688 8.085938 18.429688 C 9.75 18.429688 10.890625 17.542969 10.890625 15.601562 L 10.890625 9.183594 L 9.011719 9.183594 L 9.011719 15.574219 C 9.011719 16.511719 8.621094 16.753906 8.007812 16.753906 Z M 8.007812 16.753906 "/>
</g>
</svg>
