<?xml version="1.0" encoding="UTF-8"?>
<svg xmlns="http://www.w3.org/2000/svg" xmlns:xlink="http://www.w3.org/1999/xlink" width="20px" height="20px" viewBox="0 0 20 20" version="1.1">
<g id="surface1">
<path style=" stroke:none;fill-rule:nonzero;fill:rgb(0%,0%,0%);fill-opacity:1;" d="M 18.542969 9.851562 C 18.539062 8.671875 17.742188 7.640625 16.601562 7.339844 L 19.09375 0 L 6.753906 0 L 9.25 7.367188 C 8.144531 7.6875 7.382812 8.703125 7.382812 9.855469 C 7.382812 10.726562 7.8125 11.492188 8.476562 11.96875 C 8.210938 12.34375 7.90625 12.691406 7.570312 13.007812 C 6.957031 13.589844 6.234375 14.054688 5.445312 14.378906 C 4.75 13.910156 4.449219 13.082031 4.722656 12.339844 C 5.945312 11.960938 6.707031 10.746094 6.515625 9.480469 C 6.328125 8.214844 5.242188 7.277344 3.960938 7.273438 C 2.53125 7.273438 1.371094 8.433594 1.367188 9.867188 C 1.367188 10.570312 1.660156 11.222656 2.121094 11.683594 C 2.082031 11.765625 2.039062 11.847656 2 11.933594 C 1.613281 12.734375 1.171875 13.636719 1.003906 14.648438 C 0.667969 16.679688 1.21875 18.304688 2.542969 19.226562 C 3.261719 19.730469 4.121094 20.003906 5 20 C 6.523438 20 8.070312 19.234375 9.5625 18.492188 C 10.628906 17.96875 11.726562 17.417969 12.808594 17.148438 C 13.210938 17.054688 13.628906 16.992188 14.066406 16.929688 C 14.960938 16.804688 15.878906 16.671875 16.707031 16.191406 C 17.664062 15.640625 18.328125 14.695312 18.523438 13.613281 C 18.667969 12.785156 18.523438 11.953125 18.15625 11.222656 C 18.402344 10.820312 18.542969 10.351562 18.542969 9.851562 Z M 17.414062 9.851562 C 17.414062 10.652344 16.757812 11.308594 15.957031 11.308594 C 15.335938 11.304688 14.78125 10.914062 14.578125 10.324219 C 14.375 9.742188 14.566406 9.089844 15.050781 8.703125 L 15.054688 8.695312 C 15.101562 8.664062 15.15625 8.628906 15.207031 8.59375 C 15.207031 8.59375 15.210938 8.59375 15.210938 8.585938 C 15.238281 8.574219 15.257812 8.558594 15.28125 8.546875 C 15.289062 8.546875 15.292969 8.539062 15.300781 8.539062 C 15.320312 8.527344 15.351562 8.519531 15.382812 8.507812 C 15.410156 8.492188 15.441406 8.484375 15.460938 8.472656 C 15.46875 8.472656 15.472656 8.464844 15.476562 8.464844 C 15.503906 8.460938 15.523438 8.445312 15.550781 8.445312 C 15.554688 8.445312 15.566406 8.4375 15.570312 8.4375 C 15.601562 8.429688 15.625 8.425781 15.652344 8.417969 L 15.660156 8.417969 L 15.746094 8.402344 C 15.753906 8.402344 15.761719 8.402344 15.769531 8.398438 C 15.792969 8.398438 15.816406 8.390625 15.835938 8.390625 L 15.867188 8.390625 C 15.898438 8.390625 15.925781 8.382812 15.960938 8.382812 L 16.035156 8.382812 C 16.058594 8.382812 16.078125 8.382812 16.101562 8.390625 L 16.109375 8.390625 C 16.15625 8.398438 16.203125 8.402344 16.25 8.414062 C 16.929688 8.558594 17.414062 9.15625 17.414062 9.851562 Z M 8.367188 1.160156 L 17.476562 1.160156 L 15.386719 7.324219 C 15.300781 7.339844 15.210938 7.371094 15.128906 7.398438 L 12.929688 2.914062 L 10.71875 7.371094 C 10.632812 7.34375 10.539062 7.324219 10.445312 7.304688 L 8.367188 1.15625 Z M 12.507812 9.347656 C 12.402344 8.8125 12.128906 8.324219 11.726562 7.957031 L 12.925781 5.535156 L 14.132812 8.007812 C 13.777344 8.367188 13.515625 8.824219 13.414062 9.347656 Z M 9.609375 8.429688 C 9.636719 8.425781 9.660156 8.417969 9.691406 8.414062 L 9.707031 8.414062 C 9.730469 8.40625 9.753906 8.40625 9.773438 8.402344 L 9.800781 8.402344 C 9.820312 8.402344 9.839844 8.398438 9.863281 8.398438 L 10.085938 8.398438 C 10.113281 8.398438 10.128906 8.402344 10.148438 8.402344 C 10.160156 8.402344 10.164062 8.402344 10.175781 8.40625 C 10.195312 8.414062 10.214844 8.414062 10.242188 8.417969 C 10.242188 8.417969 10.25 8.417969 10.261719 8.425781 L 10.34375 8.441406 L 10.351562 8.441406 C 10.371094 8.445312 10.398438 8.453125 10.417969 8.464844 C 10.425781 8.464844 10.429688 8.472656 10.441406 8.472656 C 10.460938 8.476562 10.480469 8.484375 10.5 8.492188 C 10.507812 8.492188 10.511719 8.5 10.515625 8.5 C 10.539062 8.511719 10.5625 8.519531 10.585938 8.527344 L 10.59375 8.527344 L 10.671875 8.570312 C 10.695312 8.582031 10.71875 8.597656 10.742188 8.609375 C 10.75 8.609375 10.75 8.617188 10.753906 8.617188 C 10.777344 8.628906 10.796875 8.644531 10.820312 8.65625 L 10.824219 8.664062 C 10.894531 8.714844 10.957031 8.773438 11.023438 8.832031 L 11.027344 8.835938 C 11.285156 9.105469 11.429688 9.46875 11.429688 9.84375 C 11.398438 10.632812 10.753906 11.253906 9.96875 11.253906 C 9.179688 11.253906 8.535156 10.632812 8.507812 9.84375 C 8.507812 9.175781 8.960938 8.59375 9.609375 8.429688 Z M 3.910156 8.390625 C 4.714844 8.390625 5.367188 9.042969 5.367188 9.851562 C 5.367188 10.652344 4.714844 11.308594 3.910156 11.308594 C 3.105469 11.308594 2.449219 10.652344 2.449219 9.851562 C 2.449219 9.046875 3.105469 8.390625 3.910156 8.390625 Z M 17.378906 13.410156 C 17.246094 14.160156 16.785156 14.8125 16.121094 15.1875 C 15.492188 15.554688 14.714844 15.667969 13.898438 15.785156 C 13.441406 15.84375 12.984375 15.925781 12.53125 16.027344 C 11.328125 16.320312 10.167969 16.902344 9.046875 17.460938 C 7.609375 18.167969 6.257812 18.839844 5 18.839844 C 4.355469 18.847656 3.726562 18.644531 3.203125 18.269531 C 1.929688 17.386719 1.992188 15.738281 2.144531 14.835938 C 2.285156 13.992188 2.671875 13.195312 3.039062 12.4375 C 3.066406 12.390625 3.082031 12.351562 3.105469 12.304688 C 3.230469 12.351562 3.367188 12.382812 3.507812 12.410156 C 3.285156 13.636719 3.910156 14.902344 5.128906 15.53125 L 5.347656 15.648438 L 5.585938 15.558594 C 6.597656 15.199219 7.535156 14.617188 8.363281 13.835938 C 8.820312 13.40625 9.226562 12.929688 9.570312 12.402344 C 9.699219 12.425781 9.835938 12.429688 9.96875 12.429688 C 11.148438 12.429688 12.175781 11.632812 12.476562 10.492188 L 13.445312 10.492188 C 13.742188 11.632812 14.773438 12.429688 15.957031 12.429688 C 16.433594 12.429688 16.882812 12.296875 17.261719 12.070312 C 17.414062 12.507812 17.460938 12.960938 17.378906 13.410156 Z M 17.378906 13.410156 "/>
</g>
</svg>
