<?xml version="1.0" encoding="UTF-8"?>
<svg xmlns="http://www.w3.org/2000/svg" xmlns:xlink="http://www.w3.org/1999/xlink" width="20px" height="20px" viewBox="0 0 20 20" version="1.1">
<g id="surface1">
<path style=" stroke:none;fill-rule:nonzero;fill:rgb(0%,0%,0%);fill-opacity:1;" d="M 16.855469 13.160156 C 16.941406 13.113281 17.011719 13.042969 17.058594 12.960938 C 17.109375 12.875 17.132812 12.777344 17.132812 12.679688 L 17.148438 9.464844 C 17.148438 9.367188 17.171875 9.273438 17.222656 9.1875 C 17.269531 9.101562 17.339844 9.035156 17.425781 8.984375 L 19.164062 7.984375 C 19.25 7.933594 19.347656 7.910156 19.445312 7.910156 C 19.539062 7.910156 19.636719 7.9375 19.722656 7.984375 C 19.804688 8.035156 19.875 8.101562 19.925781 8.1875 C 19.976562 8.273438 20 8.367188 20 8.464844 L 20 14.308594 C 20 14.507812 19.894531 14.695312 19.71875 14.789062 L 13.144531 18.570312 C 12.972656 18.667969 12.761719 18.667969 12.589844 18.570312 L 7.429688 15.617188 C 7.34375 15.570312 7.273438 15.5 7.226562 15.414062 C 7.175781 15.332031 7.148438 15.234375 7.148438 15.132812 L 7.148438 12.1875 C 7.148438 12.183594 7.152344 12.183594 7.15625 12.183594 C 7.160156 12.1875 7.164062 12.183594 7.164062 12.179688 C 7.164062 12.175781 7.164062 12.171875 7.164062 12.171875 L 11.417969 9.730469 C 11.421875 9.726562 11.417969 9.722656 11.414062 9.722656 L 11.417969 6.828125 C 11.417969 6.628906 11.316406 6.445312 11.140625 6.34375 C 10.96875 6.242188 10.757812 6.242188 10.585938 6.34375 L 7.429688 8.164062 C 7.257812 8.265625 7.042969 8.265625 6.871094 8.164062 L 3.703125 6.339844 C 3.53125 6.242188 3.320312 6.242188 3.148438 6.339844 C 2.976562 6.441406 2.871094 6.625 2.867188 6.820312 L 2.867188 12.042969 C 2.867188 12.242188 2.765625 12.425781 2.59375 12.523438 C 2.507812 12.574219 2.414062 12.601562 2.316406 12.601562 C 2.21875 12.601562 2.125 12.574219 2.039062 12.527344 L 0.28125 11.523438 C 0.195312 11.472656 0.125 11.402344 0.0742188 11.320312 C 0.0234375 11.230469 0 11.132812 0 11.039062 L 0.015625 1.910156 C 0.015625 1.710938 0.121094 1.527344 0.292969 1.429688 C 0.464844 1.332031 0.675781 1.332031 0.847656 1.429688 L 6.871094 4.890625 C 7.042969 4.988281 7.257812 4.988281 7.429688 4.890625 L 13.449219 1.429688 C 13.535156 1.382812 13.632812 1.355469 13.726562 1.355469 C 13.824219 1.355469 13.921875 1.382812 14.007812 1.429688 C 14.089844 1.476562 14.160156 1.550781 14.210938 1.632812 C 14.257812 1.71875 14.28125 1.816406 14.28125 1.914062 L 14.28125 11.039062 C 14.28125 11.140625 14.257812 11.234375 14.207031 11.320312 C 14.160156 11.402344 14.085938 11.476562 14.003906 11.523438 L 10.851562 13.339844 C 10.765625 13.386719 10.695312 13.460938 10.644531 13.542969 C 10.597656 13.628906 10.570312 13.726562 10.570312 13.820312 C 10.570312 13.917969 10.597656 14.015625 10.648438 14.101562 C 10.695312 14.183594 10.765625 14.257812 10.851562 14.304688 L 12.589844 15.292969 C 12.675781 15.34375 12.769531 15.367188 12.867188 15.367188 C 12.960938 15.367188 13.058594 15.339844 13.144531 15.292969 Z M 17.222656 4.972656 C 17.222656 5.070312 17.246094 5.164062 17.296875 5.25 C 17.347656 5.335938 17.417969 5.40625 17.503906 5.453125 C 17.679688 5.550781 17.890625 5.550781 18.0625 5.445312 L 19.730469 4.445312 C 19.8125 4.398438 19.882812 4.328125 19.929688 4.242188 C 19.976562 4.160156 20 4.066406 20 3.96875 L 20 1.933594 C 20 1.835938 19.976562 1.738281 19.925781 1.652344 C 19.820312 1.480469 19.636719 1.378906 19.4375 1.378906 C 19.339844 1.382812 19.242188 1.40625 19.160156 1.457031 L 17.492188 2.457031 C 17.410156 2.507812 17.339844 2.574219 17.292969 2.660156 C 17.246094 2.742188 17.222656 2.835938 17.222656 2.933594 Z M 17.222656 4.972656 "/>
</g>
</svg>
