<?xml version="1.0" encoding="UTF-8"?>
<svg xmlns="http://www.w3.org/2000/svg" xmlns:xlink="http://www.w3.org/1999/xlink" width="20px" height="20px" viewBox="0 0 20 20" version="1.1">
<g id="surface1">
<path style=" stroke:none;fill-rule:nonzero;fill:rgb(0%,0%,0%);fill-opacity:1;" d="M 9.644531 0 C 9.496094 0 9.382812 0 9.34375 0.0078125 C 9.304688 0.0078125 9.164062 0.0234375 9.039062 0.0351562 C 6.199219 0.289062 3.539062 1.820312 1.855469 4.179688 C 0.914062 5.488281 0.316406 6.972656 0.0898438 8.546875 C 0.0078125 9.09375 0 9.257812 0 10.003906 C 0 10.746094 0.0078125 10.910156 0.0898438 11.460938 C 0.632812 15.210938 3.304688 18.367188 6.929688 19.539062 C 7.582031 19.746094 8.265625 19.886719 9.039062 19.976562 C 9.34375 20.007812 10.65625 20.007812 10.960938 19.976562 C 12.300781 19.824219 13.4375 19.492188 14.5625 18.921875 C 14.734375 18.835938 14.765625 18.808594 14.742188 18.789062 C 14.726562 18.777344 13.992188 17.796875 13.117188 16.605469 L 11.515625 14.445312 L 9.511719 11.480469 C 8.410156 9.851562 7.503906 8.519531 7.492188 8.519531 C 7.484375 8.515625 7.476562 9.835938 7.476562 11.445312 C 7.46875 14.257812 7.464844 14.371094 7.429688 14.441406 C 7.382812 14.535156 7.339844 14.574219 7.257812 14.617188 C 7.195312 14.648438 7.140625 14.652344 6.847656 14.652344 L 6.507812 14.652344 L 6.417969 14.597656 L 6.246094 14.367188 L 6.25 10.445312 L 6.257812 6.523438 L 6.316406 6.449219 C 6.347656 6.410156 6.414062 6.355469 6.460938 6.332031 C 6.539062 6.289062 6.570312 6.289062 6.914062 6.289062 C 7.308594 6.289062 7.378906 6.304688 7.480469 6.414062 C 7.507812 6.445312 8.59375 8.082031 9.894531 10.050781 C 11.207031 12.042969 12.523438 14.035156 13.835938 16.023438 L 15.421875 18.425781 L 15.5 18.371094 C 16.210938 17.910156 16.960938 17.253906 17.554688 16.570312 C 18.820312 15.117188 19.636719 13.347656 19.910156 11.460938 C 19.992188 10.910156 20 10.746094 20 10.003906 C 20 9.257812 19.992188 9.09375 19.910156 8.546875 C 19.367188 4.789062 16.695312 1.632812 13.070312 0.464844 C 12.429688 0.257812 11.75 0.117188 10.988281 0.03125 C 10.847656 0.015625 10.085938 0 9.644531 0 Z M 13.035156 6.015625 C 13.324219 6.015625 13.375 6.019531 13.4375 6.054688 C 13.535156 6.101562 13.609375 6.191406 13.636719 6.285156 C 13.652344 6.335938 13.65625 7.421875 13.652344 9.871094 L 13.648438 13.382812 L 12.40625 11.484375 L 12.40625 8.929688 C 12.40625 7.277344 12.414062 6.351562 12.425781 6.304688 C 12.457031 6.195312 12.523438 6.109375 12.617188 6.058594 C 12.695312 6.019531 12.726562 6.015625 13.035156 6.015625 Z M 13.035156 6.015625 "/>
</g>
</svg>
