<?xml version="1.0" encoding="UTF-8"?>
<svg xmlns="http://www.w3.org/2000/svg" xmlns:xlink="http://www.w3.org/1999/xlink" width="20px" height="20px" viewBox="0 0 20 20" version="1.1">
<g id="surface1">
<path style=" stroke:none;fill-rule:nonzero;fill:rgb(0%,0%,0%);fill-opacity:1;" d="M 7.144531 19.523438 C 7.144531 19.789062 6.929688 20 6.664062 20 L 1.90625 20 C 1.640625 20 1.429688 19.789062 1.429688 19.523438 C 1.429688 19.257812 1.640625 19.046875 1.90625 19.046875 L 6.664062 19.046875 C 6.929688 19.046875 7.144531 19.257812 7.144531 19.523438 Z M 6.664062 17.140625 L 5.714844 17.140625 C 5.449219 17.140625 5.238281 17.355469 5.238281 17.617188 C 5.238281 17.882812 5.449219 18.09375 5.714844 18.09375 L 6.664062 18.09375 C 6.929688 18.09375 7.144531 17.882812 7.144531 17.617188 C 7.144531 17.355469 6.929688 17.140625 6.664062 17.140625 Z M 1.90625 18.09375 L 3.808594 18.09375 C 4.070312 18.09375 4.285156 17.882812 4.285156 17.617188 C 4.285156 17.355469 4.070312 17.140625 3.808594 17.140625 L 1.90625 17.140625 C 1.640625 17.140625 1.429688 17.355469 1.429688 17.617188 C 1.429688 17.882812 1.640625 18.09375 1.90625 18.09375 Z M 6.664062 15.238281 L 1.90625 15.238281 C 1.640625 15.238281 1.429688 15.449219 1.429688 15.714844 C 1.429688 15.976562 1.640625 16.191406 1.90625 16.191406 L 6.664062 16.191406 C 6.929688 16.191406 7.144531 15.976562 7.144531 15.714844 C 7.144531 15.449219 6.929688 15.238281 6.664062 15.238281 Z M 13.335938 13.335938 L 4.761719 13.335938 C 4.5 13.335938 4.285156 13.546875 4.285156 13.808594 C 4.285156 14.070312 4.5 14.285156 4.761719 14.285156 L 13.335938 14.285156 C 13.597656 14.285156 13.808594 14.070312 13.808594 13.808594 C 13.808594 13.546875 13.597656 13.335938 13.335938 13.335938 Z M 1.90625 14.285156 L 2.855469 14.285156 C 3.121094 14.285156 3.335938 14.070312 3.335938 13.808594 C 3.335938 13.546875 3.121094 13.335938 2.855469 13.335938 L 1.90625 13.335938 C 1.640625 13.335938 1.429688 13.546875 1.429688 13.808594 C 1.429688 14.070312 1.640625 14.285156 1.90625 14.285156 Z M 16.191406 11.429688 L 13.335938 11.429688 C 13.070312 11.429688 12.855469 11.640625 12.855469 11.902344 C 12.855469 12.167969 13.070312 12.382812 13.335938 12.382812 L 16.191406 12.382812 C 16.453125 12.382812 16.664062 12.167969 16.664062 11.902344 C 16.664062 11.640625 16.453125 11.429688 16.191406 11.429688 Z M 7.617188 12.382812 L 11.429688 12.382812 C 11.691406 12.382812 11.902344 12.167969 11.902344 11.902344 C 11.902344 11.640625 11.691406 11.429688 11.429688 11.429688 L 7.617188 11.429688 C 7.355469 11.429688 7.144531 11.640625 7.144531 11.902344 C 7.144531 12.167969 7.355469 12.382812 7.617188 12.382812 Z M 1.90625 12.382812 L 5.714844 12.382812 C 5.976562 12.382812 6.191406 12.167969 6.191406 11.902344 C 6.191406 11.640625 5.976562 11.429688 5.714844 11.429688 L 1.90625 11.429688 C 1.640625 11.429688 1.429688 11.640625 1.429688 11.902344 C 1.429688 12.167969 1.640625 12.382812 1.90625 12.382812 Z M 17.140625 9.523438 L 9.523438 9.523438 C 9.261719 9.523438 9.050781 9.738281 9.050781 10 C 9.050781 10.261719 9.261719 10.476562 9.523438 10.476562 L 17.144531 10.476562 C 17.40625 10.476562 17.617188 10.261719 17.617188 10 C 17.617188 9.738281 17.40625 9.523438 17.144531 9.523438 Z M 8.09375 10 C 8.09375 9.738281 7.882812 9.523438 7.617188 9.523438 L 4.761719 9.523438 C 4.5 9.523438 4.285156 9.738281 4.285156 10 C 4.285156 10.261719 4.5 10.476562 4.761719 10.476562 L 7.617188 10.476562 C 7.882812 10.476562 8.09375 10.261719 8.09375 10 Z M 1.90625 10.476562 L 2.855469 10.476562 C 3.117188 10.476562 3.335938 10.261719 3.335938 10 C 3.335938 9.738281 3.117188 9.523438 2.855469 9.523438 L 1.90625 9.523438 C 1.644531 9.523438 1.429688 9.738281 1.429688 10 C 1.429688 10.261719 1.644531 10.476562 1.90625 10.476562 Z M 18.09375 7.617188 L 13.335938 7.617188 C 13.070312 7.617188 12.855469 7.832031 12.855469 8.097656 C 12.855469 8.359375 13.070312 8.570312 13.335938 8.570312 L 18.09375 8.570312 C 18.359375 8.570312 18.570312 8.359375 18.570312 8.097656 C 18.570312 7.832031 18.359375 7.617188 18.09375 7.617188 Z M 1.90625 8.570312 L 6.664062 8.570312 C 6.929688 8.570312 7.144531 8.359375 7.144531 8.097656 C 7.144531 7.832031 6.929688 7.617188 6.664062 7.617188 L 1.90625 7.617188 C 1.640625 7.617188 1.429688 7.832031 1.429688 8.097656 C 1.429688 8.359375 1.640625 8.570312 1.90625 8.570312 Z M 12.855469 6.191406 C 12.855469 6.453125 13.070312 6.664062 13.335938 6.664062 L 18.09375 6.664062 C 18.359375 6.664062 18.570312 6.453125 18.570312 6.191406 C 18.570312 5.929688 18.359375 5.714844 18.09375 5.714844 L 13.335938 5.714844 C 13.207031 5.714844 13.085938 5.765625 12.996094 5.851562 C 12.90625 5.945312 12.855469 6.066406 12.855469 6.191406 Z M 5.714844 5.714844 C 5.449219 5.714844 5.238281 5.929688 5.238281 6.191406 C 5.238281 6.453125 5.449219 6.664062 5.714844 6.664062 L 6.664062 6.664062 C 6.929688 6.664062 7.144531 6.453125 7.144531 6.191406 C 7.144531 5.929688 6.929688 5.714844 6.664062 5.714844 Z M 1.90625 6.664062 L 3.808594 6.664062 C 4.070312 6.664062 4.285156 6.453125 4.285156 6.191406 C 4.285156 5.929688 4.070312 5.714844 3.808594 5.714844 L 1.90625 5.714844 C 1.640625 5.714844 1.429688 5.929688 1.429688 6.191406 C 1.429688 6.453125 1.640625 6.664062 1.90625 6.664062 Z M 15.714844 4.285156 C 15.714844 4.546875 15.929688 4.761719 16.191406 4.761719 L 17.144531 4.761719 C 17.40625 4.761719 17.617188 4.550781 17.617188 4.285156 C 17.617188 4.023438 17.40625 3.808594 17.144531 3.808594 L 16.191406 3.808594 C 16.066406 3.808594 15.945312 3.859375 15.851562 3.949219 C 15.765625 4.039062 15.714844 4.160156 15.714844 4.285156 Z M 14.761719 4.285156 C 14.761719 4.160156 14.710938 4.039062 14.621094 3.949219 C 14.535156 3.859375 14.414062 3.808594 14.285156 3.808594 L 10.476562 3.808594 C 10.210938 3.808594 10 4.023438 10 4.285156 C 10 4.550781 10.210938 4.761719 10.476562 4.761719 L 14.285156 4.761719 C 14.546875 4.761719 14.757812 4.550781 14.757812 4.285156 Z M 1.90625 4.761719 L 8.570312 4.761719 C 8.835938 4.761719 9.046875 4.550781 9.046875 4.285156 C 9.046875 4.023438 8.835938 3.808594 8.570312 3.808594 L 1.90625 3.808594 C 1.640625 3.808594 1.429688 4.023438 1.429688 4.285156 C 1.429688 4.550781 1.640625 4.761719 1.90625 4.761719 Z M 6.191406 2.382812 C 6.191406 2.644531 6.402344 2.855469 6.664062 2.855469 L 16.191406 2.855469 C 16.453125 2.855469 16.664062 2.644531 16.664062 2.382812 C 16.664062 2.117188 16.453125 1.90625 16.191406 1.90625 L 6.664062 1.90625 C 6.402344 1.90625 6.191406 2.117188 6.191406 2.382812 Z M 1.90625 2.855469 L 4.761719 2.855469 C 5.023438 2.855469 5.238281 2.644531 5.238281 2.382812 C 5.238281 2.117188 5.023438 1.90625 4.761719 1.90625 L 1.90625 1.90625 C 1.640625 1.90625 1.429688 2.117188 1.429688 2.382812 C 1.429688 2.644531 1.640625 2.855469 1.90625 2.855469 Z M 1.90625 0.953125 L 13.335938 0.953125 C 13.597656 0.953125 13.808594 0.742188 13.808594 0.476562 C 13.808594 0.210938 13.597656 0 13.335938 0 L 1.90625 0 C 1.640625 0 1.429688 0.210938 1.429688 0.476562 C 1.429688 0.742188 1.640625 0.953125 1.90625 0.953125 Z M 1.90625 0.953125 "/>
</g>
</svg>
