<?xml version="1.0" encoding="UTF-8"?>
<svg xmlns="http://www.w3.org/2000/svg" xmlns:xlink="http://www.w3.org/1999/xlink" width="20px" height="20px" viewBox="0 0 20 20" version="1.1">
<g id="surface1">
<path style=" stroke:none;fill-rule:nonzero;fill:rgb(0%,0%,0%);fill-opacity:1;" d="M 10.097656 4.554688 C 9.921875 4.554688 9.746094 4.574219 9.578125 4.621094 C 9.347656 4.679688 8.992188 4.898438 8.785156 5.105469 C 8.445312 5.460938 8.378906 5.617188 8.234375 6.332031 C 8.164062 6.683594 8.574219 7.523438 8.941406 7.777344 C 9.316406 8.039062 9.84375 8.195312 10.660156 8.285156 C 11.851562 8.414062 12.195312 8.8125 12.195312 10.117188 C 12.195312 11.261719 11.871094 11.570312 10.558594 11.703125 C 9.136719 11.847656 8.410156 12.398438 8.257812 13.464844 C 8.167969 14.117188 8.597656 14.933594 9.195312 15.210938 C 10.550781 15.851562 11.820312 15.042969 12.082031 13.378906 C 12.257812 12.308594 12.601562 12.007812 13.746094 11.921875 C 15.070312 11.8125 15.757812 11.359375 16.007812 10.433594 C 16.242188 9.585938 15.757812 8.636719 14.929688 8.304688 C 14.707031 8.21875 14.199219 8.105469 13.804688 8.0625 C 12.554688 7.929688 12.238281 7.710938 12.101562 6.90625 C 11.914062 5.789062 11.839844 5.601562 11.445312 5.164062 C 11.101562 4.777344 10.613281 4.558594 10.097656 4.554688 Z M 6.109375 8.1875 C 5.972656 8.183594 5.832031 8.199219 5.695312 8.226562 C 4.472656 8.492188 3.886719 9.9375 4.570312 10.976562 C 5.554688 12.453125 7.859375 11.769531 7.882812 9.992188 C 7.890625 9 7.0625 8.207031 6.109375 8.1875 Z M 1.742188 11.824219 C 1.621094 11.828125 1.503906 11.84375 1.382812 11.867188 C -0.414062 12.265625 -0.476562 14.890625 1.296875 15.351562 C 1.738281 15.476562 1.78125 15.476562 2.222656 15.367188 C 3.214844 15.101562 3.777344 14.148438 3.511719 13.191406 C 3.28125 12.339844 2.558594 11.804688 1.742188 11.824219 Z M 18.257812 11.832031 C 18.066406 11.835938 17.863281 11.882812 17.605469 11.964844 C 16.449219 12.367188 16.054688 13.710938 16.789062 14.746094 C 17.257812 15.410156 18.425781 15.628906 19.140625 15.179688 C 20.320312 14.445312 20.277344 12.628906 19.0625 12.054688 C 18.746094 11.898438 18.507812 11.828125 18.257812 11.832031 Z M 18.257812 11.832031 "/>
</g>
</svg>
