<?xml version="1.0" encoding="UTF-8"?>
<svg xmlns="http://www.w3.org/2000/svg" xmlns:xlink="http://www.w3.org/1999/xlink" width="20px" height="20px" viewBox="0 0 20 20" version="1.1">
<g id="surface1">
<path style=" stroke:none;fill-rule:nonzero;fill:rgb(0%,0%,0%);fill-opacity:1;" d="M 16.335938 6.921875 C 16.125 6.851562 15.914062 6.785156 15.703125 6.722656 C 15.738281 6.578125 15.769531 6.433594 15.800781 6.289062 C 16.28125 3.960938 15.964844 2.089844 14.898438 1.472656 C 13.871094 0.882812 12.195312 1.496094 10.5 2.972656 C 10.332031 3.117188 10.167969 3.269531 10.011719 3.421875 C 9.90625 3.320312 9.796875 3.21875 9.6875 3.121094 C 7.910156 1.542969 6.128906 0.878906 5.0625 1.5 C 4.039062 2.09375 3.734375 3.855469 4.164062 6.058594 C 4.207031 6.277344 4.253906 6.492188 4.308594 6.710938 C 4.058594 6.78125 3.8125 6.859375 3.582031 6.941406 C 1.496094 7.664062 0 8.804688 0 9.984375 C 0 11.203125 1.59375 12.425781 3.761719 13.167969 C 3.9375 13.226562 4.113281 13.285156 4.292969 13.335938 C 4.234375 13.570312 4.183594 13.800781 4.136719 14.039062 C 3.726562 16.207031 4.046875 17.925781 5.070312 18.515625 C 6.125 19.125 7.898438 18.5 9.625 16.988281 C 9.761719 16.867188 9.898438 16.742188 10.035156 16.609375 C 10.207031 16.777344 10.386719 16.9375 10.566406 17.09375 C 12.238281 18.53125 13.890625 19.113281 14.910156 18.523438 C 15.964844 17.914062 16.308594 16.066406 15.863281 13.816406 C 15.828125 13.644531 15.789062 13.46875 15.746094 13.289062 C 15.871094 13.253906 15.992188 13.214844 16.113281 13.175781 C 18.367188 12.429688 20 11.222656 20 9.984375 C 20 8.800781 18.460938 7.652344 16.335938 6.921875 Z M 11.050781 3.605469 C 12.503906 2.339844 13.859375 1.84375 14.476562 2.199219 C 15.136719 2.578125 15.390625 4.109375 14.976562 6.121094 C 14.949219 6.253906 14.921875 6.382812 14.886719 6.511719 C 14.019531 6.316406 13.140625 6.175781 12.257812 6.097656 C 11.75 5.371094 11.195312 4.675781 10.59375 4.023438 C 10.746094 3.878906 10.894531 3.742188 11.050781 3.605469 Z M 6.53125 12.011719 C 6.730469 12.351562 6.933594 12.691406 7.148438 13.023438 C 6.539062 12.957031 5.933594 12.859375 5.335938 12.730469 C 5.507812 12.167969 5.722656 11.585938 5.972656 10.992188 C 6.152344 11.335938 6.335938 11.675781 6.53125 12.011719 Z M 5.347656 7.3125 C 5.910156 7.1875 6.507812 7.085938 7.128906 7.007812 C 6.921875 7.332031 6.71875 7.664062 6.527344 8 C 6.335938 8.332031 6.148438 8.671875 5.972656 9.015625 C 5.726562 8.433594 5.519531 7.863281 5.347656 7.3125 Z M 6.417969 10.003906 C 6.675781 9.464844 6.957031 8.9375 7.253906 8.417969 C 7.550781 7.898438 7.871094 7.394531 8.207031 6.898438 C 8.792969 6.855469 9.390625 6.832031 10 6.832031 C 10.609375 6.832031 11.210938 6.855469 11.792969 6.898438 C 12.125 7.390625 12.441406 7.894531 12.742188 8.410156 C 13.042969 8.925781 13.324219 9.453125 13.589844 9.988281 C 13.328125 10.527344 13.046875 11.058594 12.746094 11.582031 C 12.449219 12.101562 12.132812 12.605469 11.800781 13.105469 C 11.21875 13.148438 10.613281 13.167969 10 13.167969 C 9.386719 13.167969 8.792969 13.148438 8.21875 13.113281 C 7.878906 12.617188 7.558594 12.109375 7.257812 11.589844 C 6.957031 11.070312 6.679688 10.542969 6.417969 10.003906 Z M 13.472656 12.003906 C 13.671875 11.660156 13.859375 11.3125 14.042969 10.960938 C 14.292969 11.527344 14.511719 12.101562 14.703125 12.691406 C 14.097656 12.828125 13.484375 12.933594 12.867188 13.003906 C 13.078125 12.675781 13.277344 12.339844 13.472656 12.003906 Z M 14.035156 9.015625 C 13.851562 8.671875 13.664062 8.328125 13.46875 7.992188 C 13.277344 7.660156 13.078125 7.332031 12.871094 7.007812 C 13.5 7.085938 14.101562 7.191406 14.664062 7.320312 C 14.484375 7.898438 14.273438 8.460938 14.035156 9.015625 Z M 10.007812 4.621094 C 10.417969 5.066406 10.804688 5.535156 11.164062 6.019531 C 10.390625 5.984375 9.613281 5.984375 8.839844 6.019531 C 9.222656 5.515625 9.617188 5.046875 10.007812 4.621094 Z M 5.476562 2.226562 C 6.132812 1.84375 7.589844 2.390625 9.125 3.75 C 9.222656 3.835938 9.320312 3.929688 9.421875 4.023438 C 8.816406 4.675781 8.257812 5.371094 7.746094 6.097656 C 6.863281 6.175781 5.988281 6.3125 5.121094 6.503906 C 5.070312 6.304688 5.027344 6.101562 4.984375 5.898438 C 4.617188 4.007812 4.859375 2.582031 5.476562 2.226562 Z M 4.519531 12.523438 C 4.355469 12.476562 4.195312 12.425781 4.035156 12.371094 C 3.203125 12.109375 2.257812 11.695312 1.574219 11.152344 C 1.179688 10.878906 0.914062 10.457031 0.839844 9.984375 C 0.839844 9.269531 2.074219 8.355469 3.855469 7.734375 C 4.078125 7.65625 4.304688 7.585938 4.53125 7.519531 C 4.796875 8.367188 5.117188 9.199219 5.488281 10.003906 C 5.113281 10.820312 4.789062 11.664062 4.519531 12.523438 Z M 9.074219 16.351562 C 8.429688 16.941406 7.683594 17.410156 6.871094 17.730469 C 6.4375 17.9375 5.9375 17.957031 5.492188 17.78125 C 4.871094 17.421875 4.613281 16.042969 4.964844 14.1875 C 5.007812 13.96875 5.054688 13.75 5.109375 13.535156 C 5.984375 13.722656 6.867188 13.851562 7.761719 13.917969 C 8.277344 14.648438 8.84375 15.347656 9.449219 16.003906 C 9.324219 16.125 9.199219 16.242188 9.074219 16.351562 Z M 10.03125 15.402344 C 9.632812 14.972656 9.234375 14.496094 8.847656 13.984375 C 9.222656 14 9.609375 14.007812 10 14.007812 C 10.402344 14.007812 10.796875 14 11.1875 13.980469 C 10.828125 14.476562 10.441406 14.949219 10.03125 15.402344 Z M 15.136719 16.574219 C 15.101562 17.050781 14.867188 17.496094 14.492188 17.796875 C 13.871094 18.15625 12.546875 17.6875 11.117188 16.460938 C 10.953125 16.320312 10.789062 16.167969 10.621094 16.011719 C 11.21875 15.351562 11.769531 14.652344 12.269531 13.917969 C 13.164062 13.84375 14.054688 13.707031 14.933594 13.507812 C 14.972656 13.667969 15.007812 13.828125 15.039062 13.984375 C 15.230469 14.828125 15.261719 15.707031 15.136719 16.574219 Z M 15.847656 12.375 C 15.738281 12.410156 15.628906 12.445312 15.515625 12.476562 C 15.242188 11.625 14.90625 10.792969 14.519531 9.984375 C 14.894531 9.1875 15.210938 8.367188 15.476562 7.527344 C 15.679688 7.585938 15.875 7.648438 16.0625 7.710938 C 17.882812 8.335938 19.160156 9.265625 19.160156 9.976562 C 19.160156 10.742188 17.796875 11.730469 15.847656 12.375 Z M 10 11.789062 C 10.988281 11.789062 11.789062 10.988281 11.789062 10 C 11.789062 9.011719 10.988281 8.210938 10 8.210938 C 9.011719 8.210938 8.210938 9.011719 8.210938 10 C 8.210938 10.988281 9.011719 11.789062 10 11.789062 Z M 10 11.789062 "/>
</g>
</svg>
