<?xml version="1.0" encoding="UTF-8"?>
<svg xmlns="http://www.w3.org/2000/svg" xmlns:xlink="http://www.w3.org/1999/xlink" width="20px" height="20px" viewBox="0 0 20 20" version="1.1">
<g id="surface1">
<path style=" stroke:none;fill-rule:nonzero;fill:rgb(0%,0%,0%);fill-opacity:1;" d="M 5.773438 11.40625 C 5.914062 11.328125 6.085938 11.378906 6.164062 11.515625 L 6.21875 11.605469 C 6.617188 12.316406 7.035156 12.988281 7.46875 13.625 C 7.976562 14.378906 8.554688 15.140625 9.195312 15.914062 C 9.296875 16.03125 9.285156 16.210938 9.164062 16.316406 L 9.101562 16.371094 C 6.980469 18.222656 5.609375 18.589844 4.976562 17.480469 C 4.351562 16.394531 4.578125 14.421875 5.648438 11.554688 Z M 14.789062 13.585938 C 14.945312 13.558594 15.089844 13.65625 15.121094 13.808594 L 15.136719 13.894531 C 15.660156 16.632812 15.292969 18 14.035156 18 C 12.800781 18 11.234375 16.832031 9.324219 14.5 C 9.265625 14.15625 9.394531 14.03125 9.550781 14.03125 L 9.652344 14.03125 C 10.429688 14.039062 11.210938 14.007812 11.992188 13.949219 C 12.882812 13.878906 13.820312 13.757812 14.789062 13.585938 Z M 15.519531 7.769531 C 15.570312 7.621094 15.738281 7.542969 15.886719 7.59375 L 15.972656 7.625 C 18.691406 8.546875 19.726562 9.566406 19.070312 10.679688 C 18.433594 11.765625 16.578125 12.554688 13.503906 13.050781 C 13.433594 13.058594 13.363281 13.046875 13.304688 13.011719 C 13.164062 12.929688 13.117188 12.753906 13.199219 12.613281 L 13.253906 12.523438 C 13.671875 11.820312 14.050781 11.121094 14.390625 10.421875 C 14.789062 9.601562 15.164062 8.714844 15.519531 7.769531 Z M 6.496094 6.949219 C 6.566406 6.941406 6.636719 6.953125 6.695312 6.988281 C 6.835938 7.070312 6.882812 7.246094 6.800781 7.386719 L 6.746094 7.476562 C 6.335938 8.160156 5.960938 8.859375 5.609375 9.578125 C 5.210938 10.398438 4.835938 11.285156 4.480469 12.230469 C 4.429688 12.378906 4.261719 12.457031 4.113281 12.40625 L 4.027344 12.375 C 1.308594 11.453125 0.273438 10.433594 0.929688 9.320312 C 1.566406 8.234375 3.421875 7.445312 6.496094 6.949219 Z M 10.898438 3.628906 C 13.019531 1.777344 14.390625 1.410156 15.023438 2.519531 C 15.648438 3.605469 15.421875 5.578125 14.351562 8.445312 C 14.085938 8.671875 13.914062 8.621094 13.835938 8.484375 L 13.78125 8.394531 C 13.382812 7.683594 12.964844 7.011719 12.53125 6.375 C 12.023438 5.621094 11.445312 4.859375 10.804688 4.085938 C 10.703125 3.96875 10.714844 3.789062 10.835938 3.683594 Z M 6.070312 1.894531 C 7.304688 1.894531 8.875 3.0625 10.777344 5.398438 C 10.839844 5.738281 10.710938 5.867188 10.554688 5.867188 L 10.457031 5.863281 C 9.675781 5.859375 8.894531 5.886719 8.117188 5.945312 C 7.21875 6.019531 6.285156 6.140625 5.3125 6.3125 C 5.160156 6.335938 5.011719 6.238281 4.984375 6.085938 L 4.96875 6.003906 C 4.445312 3.265625 4.8125 1.894531 6.070312 1.894531 Z M 8.460938 6.738281 L 11.539062 6.738281 C 11.726562 6.738281 11.898438 6.835938 11.996094 7.003906 L 13.535156 9.683594 C 13.625 9.847656 13.625 10.046875 13.535156 10.210938 L 11.996094 12.894531 C 11.898438 13.054688 11.726562 13.15625 11.539062 13.15625 L 8.460938 13.15625 C 8.273438 13.15625 8.101562 13.054688 8.007812 12.894531 L 6.464844 10.210938 C 6.375 10.046875 6.375 9.847656 6.464844 9.683594 L 8.007812 7.003906 C 8.101562 6.839844 8.273438 6.738281 8.460938 6.738281 Z M 11.15625 7.398438 C 11.34375 7.398438 11.519531 7.5 11.617188 7.664062 L 12.773438 9.683594 C 12.867188 9.847656 12.867188 10.046875 12.773438 10.210938 L 11.617188 12.234375 C 11.519531 12.398438 11.34375 12.496094 11.15625 12.496094 L 8.84375 12.496094 C 8.65625 12.496094 8.480469 12.398438 8.386719 12.234375 L 7.226562 10.210938 C 7.132812 10.046875 7.132812 9.847656 7.226562 9.683594 L 8.386719 7.664062 C 8.480469 7.5 8.65625 7.398438 8.84375 7.398438 Z M 10.746094 8.121094 L 9.253906 8.121094 C 9.066406 8.121094 8.894531 8.21875 8.800781 8.382812 L 8.050781 9.683594 C 7.960938 9.847656 7.960938 10.046875 8.050781 10.210938 L 8.800781 11.507812 C 8.894531 11.671875 9.066406 11.773438 9.253906 11.773438 L 10.746094 11.773438 C 10.933594 11.773438 11.105469 11.675781 11.199219 11.507812 L 11.949219 10.210938 C 12.039062 10.046875 12.039062 9.847656 11.949219 9.683594 L 11.199219 8.382812 C 11.105469 8.21875 10.933594 8.121094 10.746094 8.121094 Z M 10.347656 8.8125 C 10.539062 8.8125 10.710938 8.914062 10.804688 9.074219 L 11.15625 9.683594 C 11.25 9.847656 11.25 10.050781 11.15625 10.210938 L 10.804688 10.820312 C 10.710938 10.984375 10.539062 11.085938 10.347656 11.085938 L 9.652344 11.085938 C 9.460938 11.085938 9.289062 10.984375 9.195312 10.820312 L 8.84375 10.210938 C 8.75 10.050781 8.75 9.847656 8.84375 9.683594 L 9.195312 9.074219 C 9.289062 8.914062 9.460938 8.8125 9.652344 8.8125 Z M 10 9.492188 C 9.835938 9.492188 9.6875 9.578125 9.605469 9.71875 C 9.523438 9.859375 9.523438 10.03125 9.605469 10.175781 C 9.6875 10.316406 9.835938 10.398438 10 10.398438 C 10.164062 10.398438 10.3125 10.316406 10.394531 10.175781 C 10.476562 10.03125 10.476562 9.859375 10.394531 9.71875 C 10.3125 9.578125 10.164062 9.492188 10 9.492188 Z M 6.316406 9.945312 L 7.132812 9.945312 M 15.816406 6.460938 C 16.144531 4.878906 16.214844 3.671875 16.003906 2.792969 C 15.878906 2.269531 15.648438 1.847656 15.304688 1.539062 C 14.933594 1.210938 14.46875 1.050781 13.949219 1.050781 C 13.085938 1.050781 12.179688 1.445312 11.214844 2.191406 C 10.820312 2.492188 10.410156 2.863281 9.988281 3.289062 C 9.949219 3.246094 9.914062 3.203125 9.871094 3.167969 C 8.667969 2.097656 7.65625 1.429688 6.789062 1.175781 C 6.273438 1.023438 5.792969 1.007812 5.355469 1.15625 C 4.890625 1.3125 4.519531 1.632812 4.257812 2.085938 C 3.828125 2.832031 3.714844 3.816406 3.875 5.023438 C 3.9375 5.519531 4.054688 6.054688 4.210938 6.636719 C 4.148438 6.644531 4.085938 6.65625 4.03125 6.675781 C 2.507812 7.183594 1.425781 7.726562 0.773438 8.347656 C 0.382812 8.714844 0.132812 9.128906 0.0351562 9.582031 C -0.0585938 10.0625 0.0351562 10.542969 0.296875 10.996094 C 0.726562 11.742188 1.515625 12.328125 2.644531 12.792969 C 3.097656 12.976562 3.605469 13.148438 4.179688 13.300781 C 4.152344 13.363281 4.132812 13.425781 4.121094 13.492188 C 3.796875 15.066406 3.726562 16.273438 3.933594 17.152344 C 4.058594 17.675781 4.289062 18.101562 4.632812 18.410156 C 5.003906 18.734375 5.46875 18.894531 5.992188 18.894531 C 6.851562 18.894531 7.757812 18.5 8.726562 17.757812 C 9.121094 17.445312 9.535156 17.078125 9.964844 16.644531 C 10.007812 16.710938 10.066406 16.777344 10.128906 16.832031 C 11.332031 17.902344 12.34375 18.570312 13.210938 18.824219 C 13.726562 18.976562 14.207031 18.992188 14.644531 18.84375 C 15.109375 18.6875 15.480469 18.367188 15.742188 17.914062 C 16.171875 17.167969 16.285156 16.183594 16.125 14.976562 C 16.058594 14.460938 15.941406 13.90625 15.773438 13.296875 C 15.835938 13.289062 15.90625 13.277344 15.96875 13.257812 C 17.492188 12.75 18.574219 12.210938 19.226562 11.585938 C 19.617188 11.222656 19.867188 10.804688 19.964844 10.355469 C 20.058594 9.871094 19.964844 9.390625 19.703125 8.9375 C 19.273438 8.195312 18.484375 7.605469 17.355469 7.140625 C 16.890625 6.949219 16.359375 6.773438 15.769531 6.621094 C 15.789062 6.570312 15.804688 6.515625 15.816406 6.460938 Z M 15.816406 6.460938 "/>
</g>
</svg>
