<?xml version="1.0" encoding="UTF-8"?>
<svg xmlns="http://www.w3.org/2000/svg" xmlns:xlink="http://www.w3.org/1999/xlink" width="20px" height="20px" viewBox="0 0 20 20" version="1.1">
<g id="surface1">
<path style=" stroke:none;fill-rule:nonzero;fill:rgb(0%,0%,0%);fill-opacity:1;" d="M 13.863281 13.753906 C 14.585938 13.691406 15.148438 13.054688 15.113281 12.289062 C 15.070312 11.53125 14.445312 10.917969 13.6875 10.917969 L 13.636719 10.917969 C 12.851562 10.945312 12.234375 11.605469 12.261719 12.394531 C 12.289062 12.789062 12.453125 13.117188 12.675781 13.351562 C 11.804688 15.054688 10.492188 16.300781 8.503906 17.351562 C 7.167969 18.046875 5.757812 18.308594 4.382812 18.125 C 3.234375 17.960938 2.335938 17.449219 1.789062 16.625 C 0.964844 15.375 0.890625 14.027344 1.574219 12.679688 C 2.074219 11.707031 2.824219 10.992188 3.324219 10.644531 C 3.171875 10.226562 3.054688 9.796875 2.976562 9.359375 C -0.722656 12.007812 -0.347656 15.628906 0.777344 17.335938 C 1.613281 18.585938 3.324219 19.382812 5.195312 19.382812 C 5.695312 19.382812 6.222656 19.347656 6.730469 19.222656 C 9.980469 18.597656 12.441406 16.648438 13.851562 13.777344 Z M 18.320312 10.632812 C 16.382812 8.359375 13.539062 7.109375 10.289062 7.109375 L 9.867188 7.109375 C 9.652344 6.648438 9.167969 6.359375 8.617188 6.359375 L 8.578125 6.359375 C 7.792969 6.359375 7.179688 7.035156 7.207031 7.820312 C 7.230469 8.570312 7.867188 9.195312 8.632812 9.195312 L 8.691406 9.195312 C 9.242188 9.175781 9.730469 8.832031 9.941406 8.320312 L 10.402344 8.320312 C 12.328125 8.320312 14.148438 8.882812 15.808594 9.980469 C 17.082031 10.820312 17.992188 11.914062 18.507812 13.226562 C 18.957031 14.304688 18.929688 15.351562 18.46875 16.226562 C 17.757812 17.597656 16.558594 18.320312 14.972656 18.320312 C 13.976562 18.320312 13 18.007812 12.5 17.789062 C 12.199219 18.035156 11.699219 18.445312 11.339844 18.695312 C 12.4375 19.195312 13.550781 19.484375 14.621094 19.484375 C 17.054688 19.484375 18.867188 18.109375 19.554688 16.789062 C 20.304688 15.289062 20.242188 12.765625 18.332031 10.605469 Z M 5.410156 14.203125 C 5.433594 14.949219 6.070312 15.574219 6.832031 15.574219 L 6.882812 15.574219 C 7.257812 15.566406 7.621094 15.40625 7.878906 15.128906 C 8.136719 14.851562 8.273438 14.480469 8.257812 14.101562 C 8.257812 13.351562 7.605469 12.726562 6.84375 12.726562 L 6.792969 12.726562 C 6.742188 12.726562 6.667969 12.726562 6.605469 12.753906 C 5.570312 11.007812 5.132812 9.132812 5.296875 7.109375 C 5.398438 5.585938 5.898438 4.261719 6.792969 3.164062 C 7.542969 2.226562 8.953125 1.765625 9.914062 1.742188 C 12.613281 1.691406 13.738281 5.050781 13.820312 6.382812 L 15.070312 6.757812 C 14.785156 2.664062 12.238281 0.515625 9.804688 0.515625 C 7.515625 0.515625 5.410156 2.179688 4.558594 4.613281 C 3.398438 7.859375 4.160156 10.980469 5.585938 13.476562 C 5.460938 13.640625 5.382812 13.929688 5.410156 14.203125 Z M 5.410156 14.203125 "/>
</g>
</svg>
