<?xml version="1.0" encoding="UTF-8"?>
<svg xmlns="http://www.w3.org/2000/svg" xmlns:xlink="http://www.w3.org/1999/xlink" width="20px" height="20px" viewBox="0 0 20 20" version="1.1">
<g id="surface1">
<path style=" stroke:none;fill-rule:nonzero;fill:rgb(0%,0%,0%);fill-opacity:1;" d="M 9.429688 13.839844 C 9.421875 13.859375 9.414062 13.875 9.429688 13.839844 Z M 17.21875 11.121094 C 16.589844 11.121094 15.96875 11.265625 15.40625 11.542969 C 15.222656 11.171875 15.03125 10.847656 15 10.601562 C 14.960938 10.320312 14.921875 10.148438 14.964844 9.8125 C 15.007812 9.476562 15.207031 8.996094 15.203125 8.960938 C 15.199219 8.929688 15.160156 8.757812 14.757812 8.753906 C 14.351562 8.75 14.007812 8.832031 13.964844 8.9375 C 13.894531 9.132812 13.835938 9.332031 13.800781 9.535156 C 13.726562 9.898438 12.992188 11.207031 12.578125 11.886719 C 12.441406 11.621094 12.324219 11.386719 12.300781 11.199219 C 12.261719 10.914062 12.222656 10.746094 12.265625 10.410156 C 12.308594 10.070312 12.507812 9.59375 12.503906 9.558594 C 12.5 9.523438 12.460938 9.351562 12.054688 9.351562 C 11.652344 9.347656 11.304688 9.429688 11.265625 9.535156 C 11.226562 9.640625 11.179688 9.890625 11.101562 10.132812 C 11.019531 10.371094 10.039062 12.546875 9.785156 13.113281 C 9.652344 13.398438 9.539062 13.632812 9.460938 13.789062 C 9.445312 13.8125 9.4375 13.828125 9.429688 13.839844 C 9.441406 13.824219 9.445312 13.808594 9.445312 13.816406 C 9.378906 13.949219 9.335938 14.023438 9.335938 14.023438 L 9.335938 14.027344 C 9.285156 14.128906 9.226562 14.21875 9.195312 14.21875 C 9.179688 14.21875 9.136719 13.957031 9.207031 13.597656 C 9.351562 12.839844 9.699219 11.664062 9.695312 11.625 C 9.695312 11.601562 9.761719 11.398438 9.46875 11.289062 C 9.183594 11.1875 9.082031 11.359375 9.054688 11.359375 C 9.03125 11.359375 9.011719 11.421875 9.011719 11.421875 C 9.011719 11.421875 9.328125 10.097656 8.40625 10.097656 C 7.832031 10.097656 7.03125 10.726562 6.640625 11.300781 C 6.394531 11.433594 5.859375 11.726562 5.296875 12.035156 C 5.082031 12.152344 4.859375 12.273438 4.648438 12.390625 C 4.632812 12.375 4.621094 12.359375 4.605469 12.34375 C 3.488281 11.148438 1.421875 10.304688 1.507812 8.703125 C 1.539062 8.117188 1.742188 6.585938 5.480469 4.722656 C 8.542969 3.195312 10.992188 3.617188 11.414062 4.546875 C 12.019531 5.875 10.101562 8.347656 6.921875 8.703125 C 5.710938 8.835938 5.074219 8.367188 4.914062 8.195312 C 4.75 8.007812 4.726562 8 4.664062 8.035156 C 4.558594 8.089844 4.625 8.253906 4.664062 8.351562 C 4.757812 8.597656 5.148438 9.035156 5.808594 9.253906 C 6.394531 9.445312 7.816406 9.550781 9.535156 8.882812 C 11.464844 8.140625 12.96875 6.070312 12.527344 4.335938 C 12.078125 2.570312 9.15625 1.992188 6.394531 2.976562 C 4.746094 3.558594 2.964844 4.476562 1.683594 5.675781 C 0.164062 7.101562 -0.0820312 8.339844 0.0195312 8.859375 C 0.375 10.699219 2.914062 11.898438 3.929688 12.789062 C 3.878906 12.816406 3.832031 12.839844 3.789062 12.867188 C 3.277344 13.117188 1.34375 14.132812 0.859375 15.199219 C 0.3125 16.414062 0.949219 17.28125 1.367188 17.398438 C 2.675781 17.761719 4.011719 17.109375 4.730469 16.039062 C 5.449219 14.964844 5.363281 13.566406 5.03125 12.929688 C 5.027344 12.917969 5.023438 12.914062 5.019531 12.902344 C 5.148438 12.824219 5.285156 12.746094 5.417969 12.667969 C 5.679688 12.515625 5.929688 12.375 6.152344 12.253906 C 6.027344 12.589844 5.9375 12.996094 5.890625 13.585938 C 5.835938 14.273438 6.117188 15.164062 6.488281 15.511719 C 6.648438 15.664062 6.847656 15.667969 6.96875 15.667969 C 7.398438 15.667969 7.59375 15.3125 7.804688 14.886719 C 8.070312 14.367188 8.304688 13.765625 8.304688 13.765625 C 8.304688 13.765625 8.011719 15.398438 8.820312 15.398438 C 9.109375 15.398438 9.402344 15.019531 9.539062 14.824219 L 9.539062 14.828125 C 9.539062 14.828125 9.539062 14.816406 9.554688 14.789062 C 9.585938 14.742188 9.601562 14.714844 9.601562 14.714844 L 9.601562 14.707031 C 9.726562 14.503906 9.980469 14.039062 10.371094 13.269531 C 10.878906 12.273438 11.363281 11.035156 11.363281 11.035156 C 11.410156 11.304688 11.476562 11.578125 11.554688 11.839844 C 11.644531 12.136719 11.828125 12.460938 11.976562 12.777344 C 11.855469 12.941406 11.785156 13.035156 11.785156 13.035156 C 11.695312 13.164062 11.585938 13.300781 11.476562 13.429688 C 11.078125 13.90625 10.601562 14.449219 10.539062 14.605469 C 10.464844 14.789062 10.484375 14.929688 10.628906 15.035156 C 10.734375 15.117188 10.921875 15.128906 11.117188 15.113281 C 11.476562 15.085938 11.730469 15 11.851562 14.945312 C 12.078125 14.863281 12.289062 14.753906 12.484375 14.613281 C 12.875 14.324219 13.113281 13.914062 13.089844 13.367188 C 13.078125 13.070312 12.980469 12.769531 12.863281 12.488281 C 12.898438 12.4375 12.933594 12.382812 12.96875 12.332031 C 13.585938 11.429688 14.066406 10.4375 14.066406 10.4375 C 14.113281 10.710938 14.179688 10.976562 14.257812 11.242188 C 14.335938 11.496094 14.480469 11.773438 14.617188 12.046875 C 14.035156 12.519531 13.675781 13.066406 13.550781 13.425781 C 13.320312 14.089844 13.5 14.390625 13.839844 14.460938 C 13.992188 14.492188 14.210938 14.417969 14.375 14.351562 C 14.617188 14.269531 14.84375 14.152344 15.050781 14.003906 C 15.441406 13.714844 15.820312 13.3125 15.792969 12.765625 C 15.785156 12.519531 15.714844 12.273438 15.625 12.035156 C 16.117188 11.828125 16.753906 11.714844 17.566406 11.808594 C 19.304688 12.011719 19.648438 13.101562 19.582031 13.554688 C 19.511719 14.007812 19.148438 14.257812 19.023438 14.335938 C 18.902344 14.410156 18.867188 14.4375 18.878906 14.492188 C 18.894531 14.574219 18.949219 14.570312 19.054688 14.554688 C 19.195312 14.527344 19.960938 14.183594 19.996094 13.34375 C 20.046875 12.28125 19.023438 11.113281 17.214844 11.121094 Z M 3.804688 15.644531 C 3.230469 16.273438 2.425781 16.507812 2.078125 16.308594 C 1.707031 16.09375 1.851562 15.167969 2.5625 14.5 C 2.992188 14.09375 3.550781 13.71875 3.917969 13.488281 C 4.003906 13.4375 4.125 13.363281 4.273438 13.273438 C 4.300781 13.257812 4.3125 13.25 4.3125 13.25 C 4.339844 13.230469 4.371094 13.214844 4.402344 13.195312 C 4.664062 14.148438 4.414062 14.984375 3.804688 15.644531 Z M 8.007812 12.789062 C 7.804688 13.277344 7.382812 14.527344 7.128906 14.460938 C 6.910156 14.40625 6.773438 13.453125 7.085938 12.515625 C 7.242188 12.042969 7.570312 11.480469 7.769531 11.261719 C 8.085938 10.910156 8.429688 10.796875 8.511719 10.9375 C 8.617188 11.121094 8.132812 12.480469 8.007812 12.789062 Z M 11.476562 14.445312 C 11.390625 14.488281 11.3125 14.515625 11.273438 14.492188 C 11.246094 14.476562 11.308594 14.417969 11.308594 14.417969 C 11.308594 14.417969 11.742188 13.953125 11.914062 13.742188 C 12.015625 13.617188 12.132812 13.46875 12.253906 13.304688 C 12.253906 13.320312 12.257812 13.335938 12.257812 13.355469 C 12.253906 13.914062 11.714844 14.292969 11.472656 14.445312 Z M 14.148438 13.835938 C 14.085938 13.789062 14.09375 13.644531 14.304688 13.1875 C 14.382812 13.007812 14.570312 12.710938 14.898438 12.421875 C 14.933594 12.53125 14.953125 12.644531 14.957031 12.757812 C 14.953125 13.460938 14.449219 13.726562 14.148438 13.835938 Z M 14.148438 13.835938 "/>
</g>
</svg>
