<?xml version="1.0" encoding="UTF-8"?>
<svg xmlns="http://www.w3.org/2000/svg" xmlns:xlink="http://www.w3.org/1999/xlink" width="20px" height="20px" viewBox="0 0 20 20" version="1.1">
<g id="surface1">
<path style=" stroke:none;fill-rule:nonzero;fill:rgb(0%,0%,0%);fill-opacity:1;" d="M 10 4 C 7.335938 4 5.667969 5.335938 5 8 C 6 6.664062 7.167969 6.164062 8.5 6.5 C 9.261719 6.691406 9.804688 7.242188 10.40625 7.851562 C 11.386719 8.847656 12.523438 10 15 10 C 17.667969 10 19.335938 8.664062 20 6 C 19 7.335938 17.835938 7.835938 16.5 7.5 C 15.742188 7.308594 15.195312 6.757812 14.59375 6.148438 C 13.617188 5.152344 12.480469 4 10 4 Z M 5 10 C 2.335938 10 0.667969 11.335938 0 14 C 1 12.664062 2.167969 12.164062 3.5 12.5 C 4.261719 12.691406 4.804688 13.242188 5.40625 13.851562 C 6.386719 14.847656 7.523438 16 10 16 C 12.667969 16 14.335938 14.664062 15 12 C 14 13.335938 12.835938 13.835938 11.5 13.5 C 10.742188 13.308594 10.195312 12.757812 9.59375 12.148438 C 8.617188 11.152344 7.480469 10 5 10 Z M 5 10 "/>
</g>
</svg>
