<?xml version="1.0" encoding="UTF-8"?>
<svg xmlns="http://www.w3.org/2000/svg" xmlns:xlink="http://www.w3.org/1999/xlink" width="20px" height="20px" viewBox="0 0 20 20" version="1.1">
<g id="surface1">
<path style=" stroke:none;fill-rule:nonzero;fill:rgb(0%,0%,0%);fill-opacity:1;" d="M 0.9375 0 C 0.417969 0 0 0.417969 0 0.9375 L 0 19.0625 C 0 19.582031 0.417969 20 0.9375 20 L 19.0625 20 C 19.582031 20 20 19.582031 20 19.0625 L 20 0.9375 C 20 0.417969 19.582031 0 19.0625 0 Z M 15.40625 8.125 C 15.914062 8.125 16.367188 8.15625 16.761719 8.21875 C 17.132812 8.273438 17.5 8.367188 17.851562 8.5 L 17.851562 10.550781 C 17.679688 10.429688 17.503906 10.332031 17.316406 10.246094 C 17.121094 10.164062 16.921875 10.085938 16.71875 10.03125 C 16.332031 9.925781 15.929688 9.867188 15.527344 9.867188 C 15.277344 9.867188 15.054688 9.886719 14.847656 9.9375 C 14.664062 9.976562 14.488281 10.042969 14.328125 10.136719 C 14.183594 10.226562 14.078125 10.328125 14 10.449219 C 13.921875 10.570312 13.882812 10.710938 13.882812 10.859375 C 13.882812 11.023438 13.929688 11.167969 14.011719 11.300781 C 14.101562 11.429688 14.222656 11.554688 14.382812 11.667969 C 14.539062 11.785156 14.734375 11.898438 14.960938 12.007812 C 15.191406 12.121094 15.445312 12.242188 15.734375 12.355469 C 16.125 12.523438 16.476562 12.695312 16.789062 12.882812 C 17.101562 13.066406 17.367188 13.273438 17.589844 13.507812 C 17.816406 13.742188 17.984375 14.007812 18.101562 14.304688 C 18.222656 14.605469 18.28125 14.953125 18.28125 15.351562 C 18.28125 15.898438 18.179688 16.359375 17.972656 16.730469 C 17.769531 17.097656 17.476562 17.40625 17.128906 17.632812 C 16.75 17.875 16.328125 18.042969 15.886719 18.132812 C 15.414062 18.230469 14.917969 18.28125 14.398438 18.28125 C 13.882812 18.285156 13.367188 18.238281 12.863281 18.144531 C 12.425781 18.070312 12 17.929688 11.601562 17.734375 L 11.601562 15.539062 C 12.355469 16.179688 13.3125 16.539062 14.300781 16.539062 C 14.578125 16.539062 14.820312 16.515625 15.027344 16.464844 C 15.234375 16.414062 15.40625 16.347656 15.546875 16.257812 C 15.683594 16.167969 15.789062 16.0625 15.855469 15.941406 C 16.011719 15.652344 15.992188 15.300781 15.796875 15.035156 C 15.671875 14.871094 15.523438 14.726562 15.347656 14.617188 C 15.132812 14.476562 14.910156 14.351562 14.675781 14.246094 C 14.398438 14.121094 14.117188 14 13.835938 13.882812 C 13.070312 13.566406 12.503906 13.175781 12.125 12.710938 C 11.75 12.253906 11.5625 11.695312 11.5625 11.042969 C 11.5625 10.53125 11.664062 10.089844 11.867188 9.726562 C 12.074219 9.355469 12.351562 9.054688 12.707031 8.816406 C 13.082031 8.570312 13.492188 8.394531 13.929688 8.292969 C 14.414062 8.179688 14.910156 8.121094 15.40625 8.125 Z M 2.8125 8.28125 L 10.78125 8.28125 L 10.78125 10.085938 L 7.921875 10.085938 L 7.921875 18.125 L 5.65625 18.125 L 5.65625 10.085938 L 2.8125 10.085938 Z M 2.8125 8.28125 "/>
</g>
</svg>
