<?xml version="1.0" encoding="UTF-8"?>
<svg xmlns="http://www.w3.org/2000/svg" xmlns:xlink="http://www.w3.org/1999/xlink" width="20px" height="20px" viewBox="0 0 20 20" version="1.1">
<g id="surface1">
<path style=" stroke:none;fill-rule:nonzero;fill:rgb(0%,0%,0%);fill-opacity:1;" d="M 6.90625 8.816406 L 7.332031 1.601562 L 14.480469 0.0078125 C 14.570312 -0.0117188 14.660156 0.0195312 14.71875 0.0859375 C 14.777344 0.148438 14.800781 0.242188 14.773438 0.324219 L 13.476562 4.828125 C 13.453125 4.914062 13.476562 5.007812 13.535156 5.070312 C 13.59375 5.136719 13.683594 5.164062 13.769531 5.148438 L 15.757812 4.765625 C 15.855469 4.746094 15.953125 4.785156 16.011719 4.863281 C 16.070312 4.941406 16.082031 5.042969 16.039062 5.132812 L 10.378906 16.421875 L 10.273438 16.582031 C 9.917969 16.695312 9.773438 16.570312 9.8125 16.390625 L 10.726562 11.972656 C 10.742188 11.882812 10.710938 11.792969 10.648438 11.730469 C 10.582031 11.671875 10.488281 11.648438 10.398438 11.679688 L 9.207031 12.039062 C 9.121094 12.066406 9.027344 12.042969 8.960938 11.984375 C 8.894531 11.921875 8.867188 11.832031 8.882812 11.742188 L 9.457031 8.929688 C 9.476562 8.847656 9.445312 8.757812 9.382812 8.695312 C 9.320312 8.636719 9.234375 8.613281 9.148438 8.632812 L 7.214844 9.078125 C 7.136719 9.097656 7.054688 9.074219 6.992188 9.023438 C 6.933594 8.972656 6.898438 8.894531 6.902344 8.816406 Z M 19.382812 2.210938 L 14.402344 3.117188 L 13.949219 4.691406 L 15.679688 4.355469 C 15.957031 4.300781 16.234375 4.425781 16.382812 4.664062 C 16.503906 4.863281 16.515625 5.109375 16.410156 5.316406 L 10.75 16.609375 L 10.742188 16.628906 L 10.726562 16.648438 L 10.625 16.804688 C 10.503906 16.996094 10.289062 17.117188 10.066406 17.117188 C 9.859375 17.113281 9.664062 17.023438 9.539062 16.863281 C 9.410156 16.707031 9.363281 16.503906 9.402344 16.304688 L 10.257812 12.152344 L 9.328125 12.4375 C 9.066406 12.515625 8.785156 12.429688 8.609375 12.21875 C 8.484375 12.0625 8.429688 11.859375 8.472656 11.660156 L 8.996094 9.09375 L 7.308594 9.484375 C 7.074219 9.539062 6.835938 9.460938 6.667969 9.289062 C 6.542969 9.15625 6.476562 8.976562 6.488281 8.789062 L 6.8125 3.316406 L 0.613281 2.207031 C 0.417969 2.171875 0.21875 2.253906 0.105469 2.414062 C -0.0078125 2.574219 -0.0195312 2.789062 0.078125 2.960938 L 9.648438 19.742188 C 9.742188 19.902344 9.914062 20 10.09375 20 C 10.277344 20 10.449219 19.898438 10.539062 19.742188 L 19.921875 2.960938 C 20.019531 2.789062 20.007812 2.574219 19.890625 2.414062 C 19.773438 2.253906 19.578125 2.175781 19.382812 2.210938 Z M 19.382812 2.210938 "/>
</g>
</svg>
