<?xml version="1.0" encoding="UTF-8"?>
<svg xmlns="http://www.w3.org/2000/svg" xmlns:xlink="http://www.w3.org/1999/xlink" width="20px" height="20px" viewBox="0 0 20 20" version="1.1">
<g id="surface1">
<path style=" stroke:none;fill-rule:nonzero;fill:rgb(0%,0%,0%);fill-opacity:1;" d="M 18.5 15.414062 L 10.355469 20 L 10.355469 16.429688 L 15.429688 13.648438 Z M 19.054688 14.914062 L 19.054688 5.324219 L 16.074219 7.035156 L 16.074219 13.199219 Z M 1.5 15.414062 L 9.644531 20 L 9.644531 16.429688 L 4.570312 13.648438 Z M 0.945312 14.914062 L 0.945312 5.324219 L 3.921875 7.035156 L 3.921875 13.199219 Z M 1.292969 4.703125 L 9.644531 0 L 9.644531 3.453125 L 4.292969 6.382812 L 4.253906 6.40625 Z M 18.707031 4.703125 L 10.355469 0 L 10.355469 3.453125 L 15.707031 6.382812 L 15.746094 6.40625 Z M 9.644531 15.617188 L 4.636719 12.878906 L 4.636719 7.449219 L 9.644531 10.324219 Z M 10.355469 15.617188 L 15.363281 12.878906 L 15.363281 7.449219 L 10.355469 10.324219 Z M 4.976562 6.820312 L 10 4.070312 L 15.023438 6.820312 L 10 9.710938 Z M 4.976562 6.820312 "/>
</g>
</svg>
